<svg version="1.1" xmlns="http://www.w3.org/2000/svg" xmlns:xlink="http://www.w3.org/1999/xlink" x="0px" y="0px"
	 viewBox="0 0 600 600" style="enable-background:new 0 0 600 600;" xml:space="preserve" id="logo">
<polygon id="light2" fill="var(--light2-color, #808080)" points="330.16,0 600,0 600,269.84"/>
<polygon id="light1" fill="var(--light1-color, #666666)" points="395.24,65.08 330.16,0 0,0 0,600 395.24,600"/>
<g id="shadows">
	<polygon id="letters-shadow" fill="var(--shadow-color, #333333)" points="600,600 600,269.84 361.29,31.13 152.14,31.13 118.19,65.08 
	118.19,416.95 204.76,503.52 204.76,534.92 269.84,600 	"/>
	<polygon id="dot-shadow" fill="var(--shadow-color, #333333)" points="106.83,600 39.72,532.89 39.3,492.97 117.81,492.97 224.84,600"/>
</g>
<g id="letters">
	<g id="s">
		<g id="s-down">
			<polygon fill="var(--s-char-color, #CCCCCC)" points="239.75,566.37 207.26,533.88 207.26,477.92 264.44,477.92 264.44,514.53 422.13,514.53 
				422.13,367.42 409.14,367.42 409.14,315.59 448.07,315.59 479.31,348.04 479.31,533.88 446.83,566.37"/>
			<path d="M447.01,318.09l29.8,30.96v183.8l-31.02,31.02H240.78l-31.02-31.02v-52.43h52.17v31.62v5h5h152.7h5v-5V369.92v-5h-5h-8
				v-46.83H447.01 M449.13,313.09h-42.5v56.83h13v142.11h-152.7v-36.62h-62.17v59.5l33.95,33.95h209.15l33.95-33.95V347.03
				L449.13,313.09L449.13,313.09z"/>
		</g>
		<g id="s-up">
			<polygon fill="var(--s-char-color, #CCCCCC)" points="239.75,367.42 207.26,334.94 207.26,186.36 239.75,153.88 446.83,153.88 479.31,186.36 
				479.31,241.95 422.13,241.95 422.13,205.71 264.44,205.71 264.44,315.59 319.04,315.59 319.04,367.42"/>
			<path d="M445.79,156.38l31.02,31.02v52.05h-52.17v-31.24v-5h-5h-152.7h-5v5v104.88v5h5h49.6v46.83h-75.76l-31.02-31.02V187.4
				l31.02-31.02H445.79 M447.86,151.38H238.71l-33.95,33.95v150.65l33.95,33.95h82.83v-56.83h-54.6V208.21h152.7v36.24h62.17v-59.12
				L447.86,151.38L447.86,151.38z"/>
		</g>
	</g>
	<g id="g">
		<polygon fill="var(--g-char-color, #CCCCCC)" points="153.17,448.39 120.69,415.91 120.69,66.12 153.17,33.63 360.26,33.63 392.74,66.12 
			392.74,124.37 335.57,124.37 335.57,85.47 177.86,85.47 177.86,396.56 335.57,396.56 335.57,286.45 292.46,286.45 292.46,234.61 
			392.74,234.61 392.74,415.91 360.26,448.39"/>
		<path d="M359.22,36.13l31.02,31.02v54.72h-52.17V87.97v-5h-5h-152.7h-5v5v306.09v5h5h152.7h5v-5v-27.14v-56.83v-21.14v-5h-5h-38.1
			v-46.83h95.27v72.97v56.83v47.95l-31.02,31.02H154.21l-31.02-31.02V67.15l31.02-31.02H359.22 M361.29,31.13H152.14l-33.95,33.95
			v351.87l33.95,33.95h209.15l33.95-33.95v-50.03v-56.83v-77.97H289.96v56.83h43.1v21.14v56.83v27.14h-152.7V87.97h152.7v38.91
			h62.17V65.08L361.29,31.13L361.29,31.13z"/>
	</g>
	<g id="dot">
		<polygon fill="var(--dot-char-color, #CCCCCC)" points="76.37,566 42.21,531.85 41.83,495.47 115.32,495.47 115.68,566.34 		"/>
		<path d="M112.84,497.97l0.33,65.85l-35.75-0.31L44.7,530.8l-0.34-32.83H112.84 M117.81,492.97H39.3l0.42,39.92l35.6,35.6
			l42.87,0.37L117.81,492.97L117.81,492.97z"/>
	</g>
</g>
</svg>
